<svg width="21" height="13" viewBox="0 0 21 13" fill="none" xmlns="http://www.w3.org/2000/svg">
<path fill-rule="evenodd" clip-rule="evenodd" d="M0.86969 1.03767C0.86969 1.59063 1.36397 2.04305 1.96809 2.04305H19.5426C20.1467 2.04305 20.641 1.59063 20.641 1.03767C20.641 0.484709 20.1467 0.0322876 19.5426 0.0322876H1.96809C1.36397 0.0322876 0.86969 0.484709 0.86969 1.03767ZM1.96809 12.0969H6.36171C6.96583 12.0969 7.46012 11.6444 7.46012 11.0915C7.46012 10.5385 6.96583 10.0861 6.36171 10.0861H1.96809C1.36397 10.0861 0.86969 10.5385 0.86969 11.0915C0.86969 11.6444 1.36397 12.0969 1.96809 12.0969ZM12.9521 7.06995H1.96809C1.36397 7.06995 0.86969 6.61753 0.86969 6.06457C0.86969 5.51161 1.36397 5.05919 1.96809 5.05919H12.9521C13.5563 5.05919 14.0505 5.51161 14.0505 6.06457C14.0505 6.61753 13.5563 7.06995 12.9521 7.06995Z" fill="#37474F"/>
</svg>
