<svg width="21" height="13" viewBox="0 0 21 13" fill="none" xmlns="http://www.w3.org/2000/svg">
<path fill-rule="evenodd" clip-rule="evenodd" d="M1.96809 2.40584C1.36397 2.40584 0.86969 1.95342 0.86969 1.40046C0.86969 0.847502 1.36397 0.395081 1.96809 0.395081H19.5426C20.1467 0.395081 20.641 0.847502 20.641 1.40046C20.641 1.95342 20.1467 2.40584 19.5426 2.40584H1.96809ZM1.96809 7.43274H19.5426C20.1467 7.43274 20.641 6.98032 20.641 6.42736C20.641 5.8744 20.1467 5.42198 19.5426 5.42198H1.96809C1.36397 5.42198 0.86969 5.8744 0.86969 6.42736C0.86969 6.98032 1.36397 7.43274 1.96809 7.43274ZM1.96809 12.4596H19.5426C20.1467 12.4596 20.641 12.0072 20.641 11.4543C20.641 10.9013 20.1467 10.4489 19.5426 10.4489H1.96809C1.36397 10.4489 0.86969 10.9013 0.86969 11.4543C0.86969 12.0072 1.36397 12.4596 1.96809 12.4596Z" fill="#37474F"/>
</svg>
